<?xml version="1.0" encoding="utf-8"?>
<!-- Generator: Adobe Illustrator 27.5.0, SVG Export Plug-In . SVG Version: 6.00 Build 0)  -->
<svg version="1.1" xmlns="http://www.w3.org/2000/svg" xmlns:xlink="http://www.w3.org/1999/xlink" x="0px" y="0px"
	 viewBox="0 0 2475 1650" style="enable-background:new 0 0 2475 1650;" xml:space="preserve">
<g id="Background">
	<rect style="fill:#FFFFFF;" width="2475" height="1650"/>
</g>
<g id="Illustration">
	<g>
		
			<linearGradient id="SVGID_1_" gradientUnits="userSpaceOnUse" x1="-1734.1311" y1="5961.1421" x2="227.925" y2="5961.1421" gradientTransform="matrix(-0.997 0.0782 -0.0782 -0.997 995.8214 6784.311)">
			<stop  offset="0" style="stop-color:#B37CFF"/>
			<stop  offset="1" style="stop-color:#F895E7"/>
		</linearGradient>
		<path style="opacity:0.26;fill:url(#SVGID_1_);" d="M1952.18,1261.175c141.901-137.303-73.558-282.365,26.012-360.875
			c99.571-78.51,524.018-249.69,64.438-487.202s-492.106-367.802-791.466-171.116c-299.359,196.686-268.1,176.942-534.687,80.754
			C449.891,226.548,194.994,428.717,303.34,636.434c108.346,207.717,166.389,200.469,72.678,345.896
			c-93.711,145.427,123.687,583.761,460.299,262.074s389.351-151.521,553.395-10.839
			C1478.53,1309.733,1727.929,1478.16,1952.18,1261.175z"/>
		
			<linearGradient id="SVGID_00000115503883568826605240000012045869228349304719_" gradientUnits="userSpaceOnUse" x1="-1175.386" y1="886.6574" x2="792.6234" y2="886.6574" gradientTransform="matrix(-0.9963 0.0864 0.0864 0.9963 995.2707 -49.8547)">
			<stop  offset="0" style="stop-color:#B37CFF"/>
			<stop  offset="1" style="stop-color:#F895E7"/>
		</linearGradient>
		<path style="opacity:0.26;fill:url(#SVGID_00000115503883568826605240000012045869228349304719_);" d="M1843.6,234.831
			c162.506,112.16-26.232,290.607,84.871,351.716c111.103,61.109,574.331,269.761,162.361,582.66
			c-206.748,157.028-443.947,330.927-771.521,186.024c-327.574-144.903-293.499-130.554-540.691,8.07
			c-247.192,138.624-531.806-18.982-459.009-241.661c72.796-222.679,131.242-225.052,14.94-353.133
			c-116.302-128.08,26.23-596.143,411.061-334.047s408.935,85.585,547.674-80.107C1368.402,264.645,1586.787,57.581,1843.6,234.831z
			"/>
		<g>
			
				<linearGradient id="SVGID_00000142873326182424996680000009901321501491875247_" gradientUnits="userSpaceOnUse" x1="2920.7742" y1="-29.7041" x2="3126.3926" y2="785.9143" gradientTransform="matrix(0.9989 -0.0474 0.0474 0.9989 -2499.8508 515.4564)">
				<stop  offset="0" style="stop-color:#B37CFF"/>
				<stop  offset="1" style="stop-color:#F895E7"/>
			</linearGradient>
			<path style="fill:url(#SVGID_00000142873326182424996680000009901321501491875247_);" d="M869.381,911.624
				c-30.054-94.561-88.134-169.987-156.903-214.391c-61.476-39.695-105.787-101.42-122.224-172.654
				c-1.728-7.488-3.78-14.998-6.167-22.505c-36.145-113.727-135.129-183.773-221.086-156.453
				c-85.957,27.32-126.338,141.66-90.192,255.386c7.391,23.255,17.411,44.677,29.41,63.813
				c38.294,61.068,53.312,134.256,39.281,204.99c-12.539,63.213-9.08,134.419,13.453,205.314
				c33.606,105.736,102.252,187.55,181.702,228.822c30.052,15.611,57.154,36.578,79.603,61.895
				c37.306,42.071,89.854,61.913,138.112,46.575c52.06-16.546,84.557-69.401,86.858-131.136
				c1.303-34.935,9.466-69.163,22.788-101.513C895.462,1103.399,899.768,1007.23,869.381,911.624z"/>
			<path style="opacity:0.57;fill:#FFFFFF;" d="M431.552,457.037c35.118,71.592,67.907,144.256,99.937,217.26
				c8.016,18.248,15.737,36.622,23.517,54.971l11.666,27.526l11.436,27.623c7.553,18.445,15.36,36.786,22.704,55.318l22.035,55.59
				c14.216,37.247,28.749,74.372,42.272,111.883c6.787,18.745,13.94,37.354,20.347,56.238l19.479,56.549
				c25.209,75.656,48.528,151.983,67.941,229.339l-3.326,0.87l-16.728-57.325l-4.149-14.335l-4.508-14.232l-9.068-28.444
				l-9.013-28.455c-2.987-9.489-6.327-18.869-9.472-28.309c-6.418-18.839-12.686-37.726-19.226-56.521
				c-26.646-75.017-54.289-149.68-83.468-223.764c-14.873-36.93-29.428-73.984-44.558-110.813l-11.272-27.652l-11.503-27.558
				c-7.658-18.377-15.317-36.753-23.16-55.053c-15.375-36.731-31.013-73.356-46.951-109.85
				c-15.745-36.578-31.84-73.017-48.04-109.39L431.552,457.037z"/>
		</g>
		<g>
			
				<linearGradient id="SVGID_00000099652960358185727590000005164172433394333579_" gradientUnits="userSpaceOnUse" x1="2155.8081" y1="277.1479" x2="2939.5654" y2="597.2167" gradientTransform="matrix(1.29 0.4901 -0.6323 1.0433 -2064.4111 -938.0858)">
				<stop  offset="0" style="stop-color:#A737D5"/>
				<stop  offset="1" style="stop-color:#EF497A"/>
			</linearGradient>
			<path style="fill:url(#SVGID_00000099652960358185727590000005164172433394333579_);" d="M1074.374,718.581
				c-2.939-79.232-37.881-149.482-91.499-197.988c-47.931-43.362-73.449-100.186-69.735-158.59
				c0.39-6.139,0.476-12.362,0.243-18.653c-3.535-95.29-79.038-169.844-168.64-166.52c-89.603,3.324-159.374,83.266-155.839,178.556
				c0.722,19.485,4.457,38.099,10.708,55.355c19.947,55.073,14.343,114.692-18.354,166.41
				c-29.221,46.219-45.332,101.918-43.128,161.321c3.286,88.595,46.586,165.963,111.264,214.258
				c24.464,18.267,44.651,40.061,59.203,64.252c24.182,40.199,68.995,66.385,119.3,64.519
				c54.267-2.013,99.738-36.108,118.772-83.303c10.771-26.706,27.907-51.449,49.459-73.674
				C1047.007,872.058,1077.346,798.689,1074.374,718.581z"/>
			<path style="opacity:0.57;fill:#FFFFFF;" d="M779.879,277.037c14.042,62.543,25.566,125.431,36.271,188.426
				c2.685,15.747,5.054,31.532,7.486,47.31l3.644,23.667l3.398,23.695c2.188,15.804,4.65,31.581,6.615,47.409l5.902,47.482
				c3.431,31.701,7.197,63.372,9.893,95.134c1.376,15.877,3.138,31.726,4.112,47.632l3.198,47.693
				c3.463,63.632,4.938,127.391,2.397,191.137l-3.416-0.016l-0.356-47.724l-0.057-11.927l-0.427-11.922l-0.91-23.838l-0.854-23.836
				c-0.267-7.945-0.901-15.879-1.333-23.818c-0.997-15.874-1.838-31.753-2.963-47.619c-5.012-63.436-11.071-126.804-18.758-190.043
				c-4.145-31.592-7.951-63.214-12.37-94.78l-3.233-23.683l-3.48-23.658c-2.308-15.773-4.617-31.546-7.124-47.298
				c-4.678-31.542-9.638-63.056-14.919-94.531c-5.075-31.501-10.521-62.965-16.086-94.401L779.879,277.037z"/>
		</g>
		<g>
			
				<linearGradient id="SVGID_00000036240181277974027830000005853939373998615997_" gradientUnits="userSpaceOnUse" x1="2258.5515" y1="528.3755" x2="1860.2018" y2="1695.9541">
				<stop  offset="0" style="stop-color:#FDF53F"/>
				<stop  offset="1" style="stop-color:#D93C65"/>
			</linearGradient>
			<path style="fill:url(#SVGID_00000036240181277974027830000005853939373998615997_);" d="M1983.151,979.032
				c21.54-25.549,27.742-60.558,16.398-91.991c-12.111-33.558-17.334-73.356-13.438-115.367
				c10.223-110.25,79.369-193.982,154.442-187.021c75.073,6.961,127.645,101.979,117.422,212.23
				c-1.984,21.402-6.19,41.803-12.229,60.736c-9.157,28.709-3.987,60.061,14.354,83.971c17.422,22.711,26.66,51.793,23.809,82.543
				c-3.893,41.985-29.369,76.769-64.452,94.414c-20.781,10.452-36.905,28.166-45.115,49.932
				c-23.294,61.758-72.982,102.743-126.37,97.793c-68.424-6.345-117.008-85.736-108.515-177.324
				C1943.505,1045.283,1959.797,1006.734,1983.151,979.032z"/>
			<path style="opacity:0.5;fill:#FFFFFF;" d="M2019.628,1396.172c1.725,0,3.374-0.985,4.14-2.655
				c37.881-82.525,60.491-223.175,72.787-326.633c13.301-111.905,17.747-205.627,17.79-206.56c0.117-2.512-1.825-4.643-4.337-4.76
				c-2.503-0.118-4.644,1.824-4.76,4.337c-0.173,3.719-18.108,373.725-89.756,529.817c-1.049,2.286-0.047,4.989,2.238,6.037
				C2018.346,1396.037,2018.992,1396.172,2019.628,1396.172z"/>
		</g>
		<g>
			
				<linearGradient id="SVGID_00000018230654979215209110000015171332136559231378_" gradientUnits="userSpaceOnUse" x1="1889.5535" y1="314.627" x2="1666.8805" y2="1471.734">
				<stop  offset="0" style="stop-color:#B37CFF"/>
				<stop  offset="1" style="stop-color:#F895E7"/>
			</linearGradient>
			<path style="fill:url(#SVGID_00000018230654979215209110000015171332136559231378_);" d="M1740.569,330.618
				c76.568-47.366,177.199-20.844,220.476,58.107l87.292,159.248c23.126,42.19,25.652,92.649,6.853,136.938l-112.833,265.828
				c-12.794,30.141-15.853,63.527-8.75,95.491l30.963,139.335c11.606,52.227-4.157,106.771-41.833,144.756
				c-59.795,60.285-156.665,62.17-218.759,4.255l-98.454-91.827c-46.156-43.049-62.078-109.535-40.43-168.822l71.397-195.53
				c9.122-24.981,11.755-51.869,7.652-78.145l-42.291-270.842c-9.75-62.439,18.851-124.643,72.594-157.888L1740.569,330.618z"/>
			<path style="opacity:0.5;fill:#FFFFFF;" d="M1799.938,1406.141c-36.082-217.219-27.154-442.484-13.31-593.208
				c8.284-90.202,18.86-160.976,26.273-204.465c4.934-28.949,8.855-48.128,11.277-59.121c5.252-23.85,6.71-25.017,8.918-26.783
				c3.464-2.771,8.515-2.207,11.283,1.253c2.233,2.791,2.301,6.615,0.429,9.444c-8.88,22.547-96.505,464.055-29.033,870.249
				c0.727,4.374-2.229,8.507-6.602,9.234c-0.446,0.074-0.888,0.109-1.326,0.109
				C1803.992,1412.853,1800.591,1410.068,1799.938,1406.141z M1843.125,535.099c0.005-0.005,0.011-0.009,0.017-0.013
				C1843.136,535.09,1843.131,535.095,1843.125,535.099z M1843.153,535.077c0.001-0.001,0.002-0.002,0.003-0.002
				C1843.156,535.076,1843.155,535.076,1843.153,535.077z"/>
		</g>
		<g style="opacity:0.6;">
			<path style="fill:#FFFFFF;" d="M2029.38,615.841c-7.086-33.63-24.715-22.089-54.24-32.436
				c-29.508-10.342-20.878-47.25-39.199-58.635c-24.426-15.18-46.855-1.089-62.051,18.834c-25.247,33.103-42.52,6.182-72.7,19.598
				c-17.29,7.686-9.914,18.453-33.303,22.788c-16.341,3.029-34.03-4.103-50.137,0.256c-11.927,3.229-20.581,8.893-23.22,20.447
				c3.368,1.585,6.856,3.018,10.448,4.313c45.092,16.254,106.605,10.827,152.181,13.223
				C1872.697,625.045,2034.402,639.674,2029.38,615.841z"/>
			<path style="fill:#FFFFFF;" d="M1632.151,502.65c-7.745-9.46-19.304-13.354-30.63-10.522
				c-12.343,3.087-19.32,14.884-30.807,19.601c-20.043,8.231-47.761-8.032-62.983,13.186c-18.618,25.952-33.004,6.488-33.004,24.098
				c0,17.61,128.632,4.634,192.102,5.561c9.17,0.134,48.98-0.534,31.843-19.568c-5.322-5.911-12.915-6.901-19.994-8.284
				c-9.23-1.803-31.175-2.793-37.859-9.973c-3.598-3.865-4.982-9.418-8.232-13.555
				C1632.443,503.011,1632.298,502.83,1632.151,502.65z"/>
		</g>
		<g>
			<g>
				
					<linearGradient id="SVGID_00000038409995929612663160000006043789439081010102_" gradientUnits="userSpaceOnUse" x1="1816.66" y1="1055.7655" x2="916.6611" y2="1150.8881">
					<stop  offset="0" style="stop-color:#CE1567"/>
					<stop  offset="1" style="stop-color:#7A1DBC"/>
				</linearGradient>
				<path style="fill:url(#SVGID_00000038409995929612663160000006043789439081010102_);" d="M1413.545,743.189h393.941
					l-27.739,644.168c-0.739,17.164-14.869,30.698-32.049,30.698h-347.069L1413.545,743.189z"/>
				<polygon style="opacity:0.76;fill:#FFFFFF;" points="1409.095,975.679 1797.474,975.679 1804.705,807.77 1412.309,807.77 				
					"/>
				
					<linearGradient id="SVGID_00000068657061763081564880000011337785023879698845_" gradientUnits="userSpaceOnUse" x1="1384.4835" y1="731.8879" x2="1823.3032" y2="731.8879">
					<stop  offset="0" style="stop-color:#A737D5"/>
					<stop  offset="1" style="stop-color:#EF497A"/>
				</linearGradient>
				<path style="fill:url(#SVGID_00000068657061763081564880000011337785023879698845_);" d="M1822.898,741.247
					c2,7.5-3.653,14.858-11.415,14.858h-426.999V707.67h420.384c5.352,0,10.036,3.598,11.415,8.77L1822.898,741.247z"/>
				
					<linearGradient id="SVGID_00000007421727797261811380000006571999773591125436_" gradientUnits="userSpaceOnUse" x1="1484.5833" y1="891.7245" x2="1500.7285" y2="891.7245">
					<stop  offset="0" style="stop-color:#A737D5"/>
					<stop  offset="1" style="stop-color:#EF497A"/>
				</linearGradient>
				
					<rect x="1484.583" y="807.77" style="fill:url(#SVGID_00000007421727797261811380000006571999773591125436_);" width="16.145" height="167.909"/>
				
					<linearGradient id="SVGID_00000040551168430689899820000006314290938177637523_" gradientUnits="userSpaceOnUse" x1="1607.2863" y1="891.7245" x2="1623.4313" y2="891.7245">
					<stop  offset="0" style="stop-color:#A737D5"/>
					<stop  offset="1" style="stop-color:#EF497A"/>
				</linearGradient>
				
					<rect x="1607.286" y="807.77" style="fill:url(#SVGID_00000040551168430689899820000006314290938177637523_);" width="16.145" height="167.909"/>
				
					<linearGradient id="SVGID_00000103968288541072881940000003447377022158167203_" gradientUnits="userSpaceOnUse" x1="1710.615" y1="891.7245" x2="1736.4473" y2="891.7245">
					<stop  offset="0" style="stop-color:#A737D5"/>
					<stop  offset="1" style="stop-color:#EF497A"/>
				</linearGradient>
				<polygon style="fill:url(#SVGID_00000103968288541072881940000003447377022158167203_);" points="1726.76,975.679 
					1710.615,975.679 1720.302,807.77 1736.447,807.77 				"/>
				<g>
					<path style="opacity:0.76;fill:#FFFFFF;" d="M1547.996,1214.627h-49.329c-2.428,0-4.397-1.969-4.397-4.397v-155.887
						c0-2.428,1.968-4.397,4.397-4.397h49.329c2.428,0,4.397,1.968,4.397,4.397v155.887
						C1552.393,1212.658,1550.424,1214.627,1547.996,1214.627z"/>
				</g>
				<g>
					<path style="opacity:0.76;fill:#FFFFFF;" d="M1686.844,1214.627h-49.329c-2.428,0-4.397-1.969-4.397-4.397v-155.887
						c0-2.428,1.969-4.397,4.397-4.397h49.329c2.428,0,4.397,1.968,4.397,4.397v155.887
						C1691.241,1212.658,1689.272,1214.627,1686.844,1214.627z"/>
				</g>
			</g>
			
				<linearGradient id="SVGID_00000009577847480257002030000000619823110003291071_" gradientUnits="userSpaceOnUse" x1="1346.955" y1="171.4091" x2="803.0468" y2="1225.2299">
				<stop  offset="0" style="stop-color:#CE1567"/>
				<stop  offset="1" style="stop-color:#7A1DBC"/>
			</linearGradient>
			<polygon style="fill:url(#SVGID_00000009577847480257002030000000619823110003291071_);" points="473.899,462.264 
				527.9,1418.055 1426.461,1418.055 1465.209,462.264 			"/>
			
				<linearGradient id="SVGID_00000049935487088653712950000006579730529556540553_" gradientUnits="userSpaceOnUse" x1="451.9798" y1="460.6497" x2="1482.7513" y2="460.6497">
				<stop  offset="0" style="stop-color:#A737D5"/>
				<stop  offset="1" style="stop-color:#EF497A"/>
			</linearGradient>
			<path style="fill:url(#SVGID_00000049935487088653712950000006579730529556540553_);" d="M1468.622,481.638H469.164
				c-4.863,0-9.157-3.172-10.587-7.819l-6.1-19.824c-2.192-7.123,3.135-14.334,10.587-14.334h1008.608
				c6.789,0,11.98,6.051,10.948,12.761l-3.05,19.824C1478.739,477.65,1474.089,481.638,1468.622,481.638z"/>
			
				<linearGradient id="SVGID_00000050630094613350498800000007042350348725063860_" gradientUnits="userSpaceOnUse" x1="478.2773" y1="607.5704" x2="1462.0675" y2="607.5704">
				<stop  offset="0" style="stop-color:#B37CFF"/>
				<stop  offset="1" style="stop-color:#F895E7"/>
			</linearGradient>
			<polygon style="opacity:0.26;fill:url(#SVGID_00000050630094613350498800000007042350348725063860_);" points="1456.569,675.38 
				1462.068,539.761 478.277,539.761 485.94,675.38 			"/>
			
				<linearGradient id="SVGID_00000068636345422754487380000006409684522814334888_" gradientUnits="userSpaceOnUse" x1="526.7619" y1="1490.0958" x2="722.46" y2="-926.9514">
				<stop  offset="0" style="stop-color:#53D8FF"/>
				<stop  offset="1" style="stop-color:#3840F7"/>
			</linearGradient>
			
				<rect x="586.915" y="539.761" style="fill:url(#SVGID_00000068636345422754487380000006409684522814334888_);" width="22.603" height="135.619"/>
			
				<linearGradient id="SVGID_00000032633713198005412210000009052081550151733123_" gradientUnits="userSpaceOnUse" x1="680.7455" y1="1502.563" x2="876.4437" y2="-914.4838">
				<stop  offset="0" style="stop-color:#53D8FF"/>
				<stop  offset="1" style="stop-color:#3840F7"/>
			</linearGradient>
			
				<rect x="741.908" y="539.761" style="fill:url(#SVGID_00000032633713198005412210000009052081550151733123_);" width="22.603" height="135.619"/>
			
				<linearGradient id="SVGID_00000023993209360407224560000004709854948028524420_" gradientUnits="userSpaceOnUse" x1="834.7294" y1="1515.0305" x2="1030.4275" y2="-902.0165">
				<stop  offset="0" style="stop-color:#53D8FF"/>
				<stop  offset="1" style="stop-color:#3840F7"/>
			</linearGradient>
			
				<rect x="896.901" y="539.761" style="fill:url(#SVGID_00000023993209360407224560000004709854948028524420_);" width="22.603" height="135.619"/>
			
				<linearGradient id="SVGID_00000133525011429721367870000002453278852686641074_" gradientUnits="userSpaceOnUse" x1="988.713" y1="1527.4978" x2="1184.4111" y2="-889.549">
				<stop  offset="0" style="stop-color:#53D8FF"/>
				<stop  offset="1" style="stop-color:#3840F7"/>
			</linearGradient>
			
				<rect x="1051.894" y="539.761" style="fill:url(#SVGID_00000133525011429721367870000002453278852686641074_);" width="22.603" height="135.619"/>
			
				<linearGradient id="SVGID_00000116204835869332498870000004275196253412089737_" gradientUnits="userSpaceOnUse" x1="1142.6969" y1="1539.9653" x2="1338.395" y2="-877.0818">
				<stop  offset="0" style="stop-color:#53D8FF"/>
				<stop  offset="1" style="stop-color:#3840F7"/>
			</linearGradient>
			
				<rect x="1206.887" y="539.761" style="fill:url(#SVGID_00000116204835869332498870000004275196253412089737_);" width="22.603" height="135.619"/>
			
				<linearGradient id="SVGID_00000010991333935433003470000004762685329303655077_" gradientUnits="userSpaceOnUse" x1="1296.6805" y1="1552.4325" x2="1492.3785" y2="-864.6142">
				<stop  offset="0" style="stop-color:#53D8FF"/>
				<stop  offset="1" style="stop-color:#3840F7"/>
			</linearGradient>
			
				<rect x="1361.88" y="539.761" style="fill:url(#SVGID_00000010991333935433003470000004762685329303655077_);" width="22.603" height="135.619"/>
			<g>
				<rect x="596.602" y="730.273" style="opacity:0.82;fill:#FFFFFF;" width="232.658" height="100.1"/>
				
					<linearGradient id="SVGID_00000003101196862123500540000015022877741942603393_" gradientUnits="userSpaceOnUse" x1="605.2188" y1="781.9376" x2="820.6435" y2="781.9376">
					<stop  offset="0" style="stop-color:#B37CFF"/>
					<stop  offset="1" style="stop-color:#F895E7"/>
				</linearGradient>
				
					<rect x="605.219" y="739.96" style="opacity:0.26;fill:url(#SVGID_00000003101196862123500540000015022877741942603393_);" width="215.425" height="83.955"/>
			</g>
			<g>
				<rect x="850.803" y="730.273" style="opacity:0.82;fill:#FFFFFF;" width="232.658" height="100.1"/>
				
					<linearGradient id="SVGID_00000151508499769639726010000016569781610784936364_" gradientUnits="userSpaceOnUse" x1="859.4199" y1="781.9376" x2="1074.8446" y2="781.9376">
					<stop  offset="0" style="stop-color:#B37CFF"/>
					<stop  offset="1" style="stop-color:#F895E7"/>
				</linearGradient>
				
					<rect x="859.42" y="739.96" style="opacity:0.26;fill:url(#SVGID_00000151508499769639726010000016569781610784936364_);" width="215.425" height="83.955"/>
			</g>
			<g>
				<rect x="1105.004" y="730.273" style="opacity:0.82;fill:#FFFFFF;" width="232.659" height="100.1"/>
				
					<linearGradient id="SVGID_00000054982859900875552330000001400733975797447066_" gradientUnits="userSpaceOnUse" x1="1113.621" y1="781.9376" x2="1329.0457" y2="781.9376">
					<stop  offset="0" style="stop-color:#B37CFF"/>
					<stop  offset="1" style="stop-color:#F895E7"/>
				</linearGradient>
				
					<rect x="1113.621" y="739.96" style="opacity:0.26;fill:url(#SVGID_00000054982859900875552330000001400733975797447066_);" width="215.425" height="83.955"/>
			</g>
			<rect x="645.037" y="1062.863" style="opacity:0.76;fill:#FFFFFF;" width="439.147" height="377.796"/>
			<path style="opacity:0.76;fill:#FFFFFF;" d="M690.243,1440.659h-57.498c-12.828,0-23.228-10.399-23.228-23.228v-367.484h80.726
				V1440.659z"/>
			
				<linearGradient id="SVGID_00000045593040175880830780000009602160960938476462_" gradientUnits="userSpaceOnUse" x1="770.6332" y1="1247.5063" x2="1774.8604" y2="1914.0541">
				<stop  offset="0" style="stop-color:#2B3582"/>
				<stop  offset="1" style="stop-color:#150E42"/>
			</linearGradient>
			
				<rect x="722.534" y="1179.108" style="fill:url(#SVGID_00000045593040175880830780000009602160960938476462_);" width="284.154" height="261.551"/>
			<path style="opacity:0.76;fill:#FFFFFF;" d="M575.337,895.102l11.578,196.822h452.064v348.734h294.469
				c15.886,0,28.941-12.537,29.583-28.41l20.57-508.381c0.484-11.954-9-21.948-20.963-22.091l-765.849-9.154
				C584.471,872.476,574.614,882.805,575.337,895.102z"/>
			
				<linearGradient id="SVGID_00000038412899770726615610000004624259998334760376_" gradientUnits="userSpaceOnUse" x1="1117.2344" y1="916.5583" x2="722.2423" y2="1018.3601">
				<stop  offset="0" style="stop-color:#53D8FF"/>
				<stop  offset="1" style="stop-color:#3840F7"/>
			</linearGradient>
			<polygon style="fill:url(#SVGID_00000038412899770726615610000004624259998334760376_);" points="583.116,1027.344 
				1084.184,1027.344 1084.184,953.076 578.747,953.076 			"/>
			
				<linearGradient id="SVGID_00000075156474643489124750000017952911764772622505_" gradientUnits="userSpaceOnUse" x1="657.9532" y1="990.2098" x2="677.3273" y2="990.2098">
				<stop  offset="0" style="stop-color:#9CFFFB"/>
				<stop  offset="1" style="stop-color:#9BFFFA"/>
			</linearGradient>
			
				<rect x="657.953" y="953.076" style="fill:url(#SVGID_00000075156474643489124750000017952911764772622505_);" width="19.374" height="74.268"/>
			
				<linearGradient id="SVGID_00000090978752303169790800000008460151123553992326_" gradientUnits="userSpaceOnUse" x1="745.1368" y1="990.2098" x2="764.5109" y2="990.2098">
				<stop  offset="0" style="stop-color:#9CFFFB"/>
				<stop  offset="1" style="stop-color:#9BFFFA"/>
			</linearGradient>
			
				<rect x="745.137" y="953.076" style="fill:url(#SVGID_00000090978752303169790800000008460151123553992326_);" width="19.374" height="74.268"/>
			
				<linearGradient id="SVGID_00000120553867238036402740000010839730823506074037_" gradientUnits="userSpaceOnUse" x1="832.3205" y1="990.2098" x2="851.6946" y2="990.2098">
				<stop  offset="0" style="stop-color:#9CFFFB"/>
				<stop  offset="1" style="stop-color:#9BFFFA"/>
			</linearGradient>
			
				<rect x="832.32" y="953.076" style="fill:url(#SVGID_00000120553867238036402740000010839730823506074037_);" width="19.374" height="74.268"/>
			
				<linearGradient id="SVGID_00000049928736928196922310000004084518685463702662_" gradientUnits="userSpaceOnUse" x1="919.5042" y1="990.2098" x2="938.8784" y2="990.2098">
				<stop  offset="0" style="stop-color:#9CFFFB"/>
				<stop  offset="1" style="stop-color:#9BFFFA"/>
			</linearGradient>
			
				<rect x="919.504" y="953.076" style="fill:url(#SVGID_00000049928736928196922310000004084518685463702662_);" width="19.374" height="74.268"/>
			
				<linearGradient id="SVGID_00000049922085838435596320000009664988746729014192_" gradientUnits="userSpaceOnUse" x1="1006.6878" y1="990.2098" x2="1026.0621" y2="990.2098">
				<stop  offset="0" style="stop-color:#9CFFFB"/>
				<stop  offset="1" style="stop-color:#9BFFFA"/>
			</linearGradient>
			
				<rect x="1006.688" y="953.076" style="fill:url(#SVGID_00000049922085838435596320000009664988746729014192_);" width="19.374" height="74.268"/>
		</g>
		<g>
			<g>
				<g>
					
						<linearGradient id="SVGID_00000183942492056638617330000005288160653199355528_" gradientUnits="userSpaceOnUse" x1="1825.6814" y1="915.9057" x2="1893.2814" y2="1024.6995">
						<stop  offset="0" style="stop-color:#F9B776"/>
						<stop  offset="1" style="stop-color:#F47960"/>
					</linearGradient>
					<path style="fill:url(#SVGID_00000183942492056638617330000005288160653199355528_);" d="M1891.311,936.112
						c-31.122,30.613-74.584,41.696-74.584,41.696l3.464,19.692c0,0,37.436,10.133,94.777-22.791
						C1909.926,957.389,1899.1,944,1891.311,936.112z"/>
					
						<linearGradient id="SVGID_00000118397457258913718400000015817350876505112472_" gradientUnits="userSpaceOnUse" x1="2168.8228" y1="642.1861" x2="1290.058" y2="1542.8218">
						<stop  offset="0" style="stop-color:#53D8FF"/>
						<stop  offset="1" style="stop-color:#3840F7"/>
					</linearGradient>
					<path style="fill:url(#SVGID_00000118397457258913718400000015817350876505112472_);" d="M1914.969,974.709
						c6.447-3.701,13.133-7.92,20.059-12.787c60.394-42.44,83.334-152.299,73.718-175.486c-12.8-30.866-30.603-27.293-45.207-16.003
						c-15.264,11.8-23.643,30.615-22.539,49.877c2.613,45.574-28.945,95.397-49.689,115.803
						C1899.1,944,1909.926,957.389,1914.969,974.709z"/>
				</g>
				
					<linearGradient id="SVGID_00000119104372773878182660000007386845648847132297_" gradientUnits="userSpaceOnUse" x1="1770.7307" y1="950.05" x2="1838.3306" y2="1058.8438">
					<stop  offset="0" style="stop-color:#F9B776"/>
					<stop  offset="1" style="stop-color:#F47960"/>
				</linearGradient>
				<path style="fill:url(#SVGID_00000119104372773878182660000007386845648847132297_);" d="M1826.031,974.909l-30.412-8.193
					c0,0,17.973,8.999,7.16,14.731c-10.813,5.732-37.284,8.833-45.177,8.199c-8.631-0.693,32.96,44.33,76.023,1.617
					L1826.031,974.909z"/>
				
					<linearGradient id="SVGID_00000034771897375945747360000012583196823415046801_" gradientUnits="userSpaceOnUse" x1="5731.8257" y1="1441.4421" x2="5834.1235" y2="1441.4421" gradientTransform="matrix(-1 0 0 1 7797.4424 0)">
					<stop  offset="0" style="stop-color:#2B3582"/>
					<stop  offset="1" style="stop-color:#150E42"/>
				</linearGradient>
				<path style="fill:url(#SVGID_00000034771897375945747360000012583196823415046801_);" d="M2027.157,1462.067
					c-23.821,1.096-46.879,0.408-62.274-0.384c14.017-9.977,46.31-31.684,73.332-40.326l18.55-1.11c0,0,6.286,9.56,8.529,31.436
					C2062.219,1455.519,2053.234,1460.868,2027.157,1462.067z"/>
				
					<linearGradient id="SVGID_00000069392691415911560800000008811016988714351015_" gradientUnits="userSpaceOnUse" x1="5731.8262" y1="1459.8354" x2="5834.1235" y2="1459.8354" gradientTransform="matrix(-1 0 0 1 7797.4424 0)">
					<stop  offset="0" style="stop-color:#53D8FF"/>
					<stop  offset="1" style="stop-color:#3840F7"/>
				</linearGradient>
				<path style="fill:url(#SVGID_00000069392691415911560800000008811016988714351015_);" d="M1964.692,1461.82
					c0.062-0.044,0.13-0.092,0.192-0.136c15.395,0.792,38.453,1.48,62.274,0.384c26.076-1.2,35.062-6.548,38.136-10.384
					c0.104,1.008,0.209,2.009,0.294,3.069c0.385,4.8-3.178,9.016-7.98,9.379c-19.509,1.475-67.88,4.816-91.207,3.592
					C1963.324,1467.562,1962.183,1463.608,1964.692,1461.82z"/>
				
					<linearGradient id="SVGID_00000139255939752140876470000006339569704248705453_" gradientUnits="userSpaceOnUse" x1="5552.123" y1="1441.6974" x2="5600.0225" y2="1441.6974" gradientTransform="matrix(-1 0 0 1 7797.4424 0)">
					<stop  offset="0" style="stop-color:#2B3582"/>
					<stop  offset="1" style="stop-color:#150E42"/>
				</linearGradient>
				<path style="fill:url(#SVGID_00000139255939752140876470000006339569704248705453_);" d="M2197.532,1455.693
					c1.745-11.183,4.542-27.35,6.703-31.483c3.391-6.484,14.998,0,14.998,0s8.149,3.8,11.899,10.133
					c2.39,4.037,9.002,15.524,13.482,23.322c0.515,0.897,0.73,1.852,0.703,2.776l-46.478,1.626
					C2197.703,1460.244,2197.169,1458.021,2197.532,1455.693z"/>
				
					<linearGradient id="SVGID_00000066487906550238417140000013494751685590194621_" gradientUnits="userSpaceOnUse" x1="5552.125" y1="1463.4708" x2="5598.603" y2="1463.4708" gradientTransform="matrix(-1 0 0 1 7797.4424 0)">
					<stop  offset="0" style="stop-color:#53D8FF"/>
					<stop  offset="1" style="stop-color:#3840F7"/>
				</linearGradient>
				<path style="fill:url(#SVGID_00000066487906550238417140000013494751685590194621_);" d="M2245.317,1460.441
					c-0.078,2.655-2.182,5.063-5.15,5.144l-33.112,0.911c-3.499,0.096-6.528-1.722-8.215-4.429L2245.317,1460.441z"/>
				
					<linearGradient id="SVGID_00000124874705309965268340000001281927742715449508_" gradientUnits="userSpaceOnUse" x1="5572.3813" y1="1408.676" x2="5603.4609" y2="1408.676" gradientTransform="matrix(-1 0 0 1 7797.4424 0)">
					<stop  offset="0" style="stop-color:#F9B776"/>
					<stop  offset="1" style="stop-color:#F47960"/>
				</linearGradient>
				<path style="fill:url(#SVGID_00000124874705309965268340000001281927742715449508_);" d="M2193.981,1387.041
					c0.401,1.341,6.407,30.456,9.036,43.234c0.727,3.532,3.908,6.011,7.509,5.831c1.967-0.098,4.255-0.276,6.655-0.586
					c4.257-0.551,7.499-4.106,7.662-8.396c0.427-11.193,0.636-32.683-3.474-41.01
					C2215.7,1374.626,2193.981,1387.041,2193.981,1387.041z"/>
				
					<linearGradient id="SVGID_00000072984576694547102560000007243310684492788667_" gradientUnits="userSpaceOnUse" x1="5737.0293" y1="1406.6415" x2="5762.9326" y2="1406.6415" gradientTransform="matrix(-1 0 0 1 7797.4424 0)">
					<stop  offset="0" style="stop-color:#F9B776"/>
					<stop  offset="1" style="stop-color:#F47960"/>
				</linearGradient>
				<path style="fill:url(#SVGID_00000072984576694547102560000007243310684492788667_);" d="M2060.413,1395.376
					c-2.576-0.082,1.028,13.3-2.87,26.452c-0.879,2.967-3.097,5.295-6.191,5.335c-2.005,0.026-4.381-0.013-6.793-0.206
					c-3.628-0.291-6.543-3.106-6.88-6.73l-3.17-34.114L2060.413,1395.376z"/>
				
					<linearGradient id="SVGID_00000180357879952328861590000010875719811885381540_" gradientUnits="userSpaceOnUse" x1="2107.4534" y1="1306.9473" x2="2314.1541" y2="2145.4482">
					<stop  offset="0" style="stop-color:#53D8FF"/>
					<stop  offset="1" style="stop-color:#3840F7"/>
				</linearGradient>
				<path style="fill:url(#SVGID_00000180357879952328861590000010875719811885381540_);" d="M1986.98,1042.267
					c1.15,5.597,43.114,232.768,45.577,355.246c0.041,2.054,1.552,3.776,3.587,4.059c5.151,0.718,15.184,1.641,24.912-0.162
					c1.332-0.247,2.336-1.344,2.42-2.696c1.418-22.824,11.441-206.278-2.529-297.121c0,0,116.767,233.314,134.257,300.274
					c0.426,1.629,1.921,2.725,3.603,2.636c4.942-0.261,15.218-1.15,23.378-4.153c2.925-1.077,4.591-4.151,3.853-7.179
					c-9.772-40.073-79.638-306.638-126.135-367.468L1986.98,1042.267z"/>
				
					<linearGradient id="SVGID_00000124847330346581014280000012305145303365619840_" gradientUnits="userSpaceOnUse" x1="9628.8271" y1="1017.9236" x2="9522.8066" y2="1154.9924" gradientTransform="matrix(-1 0 0 1 11623.4424 0)">
					<stop  offset="0" style="stop-color:#50E7B7"/>
					<stop  offset="0.9964" style="stop-color:#323992"/>
				</linearGradient>
				<path style="fill:url(#SVGID_00000124847330346581014280000012305145303365619840_);" d="M2060.947,1103.107
					c0.382,0,0.765-0.143,1.059-0.432c0.598-0.584,0.609-1.544,0.024-2.142l-15.451-15.8c-0.584-0.599-1.544-0.608-2.142-0.023
					c-0.598,0.584-0.609,1.544-0.024,2.142l15.45,15.8C2060.161,1102.955,2060.554,1103.107,2060.947,1103.107z"/>
				
					<linearGradient id="SVGID_00000119092432595568319260000007734878858612388028_" gradientUnits="userSpaceOnUse" x1="1972.4159" y1="865.2472" x2="2589.4434" y2="1305.4661">
					<stop  offset="0" style="stop-color:#53D8FF"/>
					<stop  offset="1" style="stop-color:#3840F7"/>
				</linearGradient>
				<path style="fill:url(#SVGID_00000119092432595568319260000007734878858612388028_);" d="M2012.901,740.17
					c53.353,0,61.519,64.76,62.087,74.758c6.574,115.908,7.996,150.931,24.914,210.776c-38.028,15.048-75.728,22.028-112.921,16.563
					c-27.864-59.682-45.889-112.11-66.704-190.357c0,0-4.22-58.98,22.935-90.199C1957.242,745.58,1976.21,740.17,2012.901,740.17z"
					/>
				
					<linearGradient id="SVGID_00000139282978712422292520000015901971792027546002_" gradientUnits="userSpaceOnUse" x1="5809.9946" y1="787.4928" x2="5822.2471" y2="711.9371" gradientTransform="matrix(-1 0 0 1 7797.4424 0)">
					<stop  offset="0" style="stop-color:#F9B776"/>
					<stop  offset="1" style="stop-color:#F47960"/>
				</linearGradient>
				<path style="fill:url(#SVGID_00000139282978712422292520000015901971792027546002_);" d="M1985.557,686.423
					c0,0,15.456,38.639,22.807,60.078c1.095,3.192-1.393,6.528-4.393,8.073c-8.18,4.211-25.642,10.993-44.669,4.769
					c-3.134-1.025-5.188-4.057-5.116-7.353l1.305-59.607L1985.557,686.423z"/>
				<g>
					
						<linearGradient id="SVGID_00000170985406913939343180000013145666993880032955_" gradientUnits="userSpaceOnUse" x1="6741.1875" y1="1279.3046" x2="6658.6392" y2="1342.4667" gradientTransform="matrix(-0.8659 0.5002 0.5002 0.8659 7120.7402 -3790.116)">
						<stop  offset="0" style="stop-color:#F9B776"/>
						<stop  offset="1" style="stop-color:#F47960"/>
					</linearGradient>
					<path style="fill:url(#SVGID_00000170985406913939343180000013145666993880032955_);" d="M1911.471,662.777
						c0,0,4.087,35.947,11.956,51.508c7.868,15.561,10.271,27.22,29.456,20.187c19.186-7.033,28.855-24.199,28.136-43.812
						c0,0-0.901-30.34-9.171-38.202C1963.577,644.596,1911.471,662.777,1911.471,662.777z"/>
					
						<linearGradient id="SVGID_00000136412161943699662990000017318085436713156779_" gradientUnits="userSpaceOnUse" x1="6683.1924" y1="1229.4441" x2="6757.9438" y2="1325.6865" gradientTransform="matrix(-0.8659 0.5002 0.5002 0.8659 7120.7402 -3790.116)">
						<stop  offset="0" style="stop-color:#2B3582"/>
						<stop  offset="1" style="stop-color:#150E42"/>
					</linearGradient>
					<path style="fill:url(#SVGID_00000136412161943699662990000017318085436713156779_);" d="M1968.825,683.303l-2.204,1.273
						c0,0-1.678-23.869-11.546-22.533c-9.868,1.336-45.194,13.146-58.489,5.87c-12.818-7.013-15.021-24.363-8.507-33.338
						c0.412-0.568,1.217-0.684,1.811-0.311l1.521,0.955c1.041,0.654,2.349-0.292,2.055-1.486c-0.279-1.132,0.906-2.1,1.935-1.55
						c4.024,2.148,12.825,4.336,29.599-1.622c23.802-8.454,43.049-7.963,51.985,6.701c0.567,0.929,1.873,0.866,2.394-0.089
						c1.029-1.885,3.307-3.807,8.353-2.913c8.774,1.555,13.799,15.833,6.973,33.908c-0.324,0.858,0.235,1.816,1.152,1.865
						c3.23,0.172,8.828,1.787,2.561,11.87c-6.411,10.314-12.211,12.944-14.589,13.61c-0.64,0.179-1.308-0.113-1.604-0.707
						l-6.795-13.643c-0.352-0.706-1.225-0.969-1.908-0.574L1968.825,683.303z"/>
					
						<linearGradient id="SVGID_00000109721886780818293650000010099263690333550267_" gradientUnits="userSpaceOnUse" x1="6730.9482" y1="1265.9233" x2="6648.3989" y2="1329.0861" gradientTransform="matrix(-0.8659 0.5002 0.5002 0.8659 7120.7402 -3790.116)">
						<stop  offset="0" style="stop-color:#F9B776"/>
						<stop  offset="1" style="stop-color:#F47960"/>
					</linearGradient>
					<path style="fill:url(#SVGID_00000109721886780818293650000010099263690333550267_);" d="M1969.876,686.372
						c0,0-5.828-21.104,5.37-20.711c11.198,0.393,7.606,23.024,1.389,27.531L1969.876,686.372z"/>
				</g>
				<g>
					
						<linearGradient id="SVGID_00000179605215877886868410000010720782257729320838_" gradientUnits="userSpaceOnUse" x1="1865.3639" y1="920.7481" x2="1996.4037" y2="1105.7456">
						<stop  offset="0" style="stop-color:#F9B776"/>
						<stop  offset="1" style="stop-color:#F47960"/>
					</linearGradient>
					<path style="fill:url(#SVGID_00000179605215877886868410000010720782257729320838_);" d="M1932.673,936.112
						c-31.122,30.613-74.584,41.696-74.584,41.696l3.464,19.692c0,0,37.437,10.133,94.777-22.791
						C1951.287,957.389,1940.462,944,1932.673,936.112z"/>
					
						<linearGradient id="SVGID_00000016074657370799221490000012435963208523502764_" gradientUnits="userSpaceOnUse" x1="2190.012" y1="662.8604" x2="1311.2471" y2="1563.4965">
						<stop  offset="0" style="stop-color:#53D8FF"/>
						<stop  offset="1" style="stop-color:#3840F7"/>
					</linearGradient>
					<path style="fill:url(#SVGID_00000016074657370799221490000012435963208523502764_);" d="M1956.33,974.709
						c6.448-3.701,13.133-7.92,20.059-12.787c60.395-42.44,83.334-152.299,73.718-175.486c-12.8-30.866-30.603-27.293-45.207-16.003
						c-15.264,11.8-23.643,30.615-22.539,49.877c2.613,45.574-28.945,95.397-49.689,115.803
						C1940.462,944,1951.287,957.389,1956.33,974.709z"/>
				</g>
				
					<linearGradient id="SVGID_00000095297145051296860690000009799677244256708264_" gradientUnits="userSpaceOnUse" x1="1814.1125" y1="957.0513" x2="1945.1522" y2="1142.0486">
					<stop  offset="0" style="stop-color:#F9B776"/>
					<stop  offset="1" style="stop-color:#F47960"/>
				</linearGradient>
				<path style="fill:url(#SVGID_00000095297145051296860690000009799677244256708264_);" d="M1867.393,974.909l-22.809-15.796
					c0,0,10.371,16.602-0.443,22.333c-10.813,5.732-37.284,8.833-45.177,8.199c-8.631-0.693,32.96,44.33,76.023,1.617
					L1867.393,974.909z"/>
			</g>
		</g>
		<g>
			<g>
				<g>
					
						<linearGradient id="SVGID_00000106105074989240249320000002260539185978078631_" gradientUnits="userSpaceOnUse" x1="-381.3105" y1="1213.2727" x2="-500.0535" y2="1626.0458" gradientTransform="matrix(-0.9601 0.28 0.28 0.9601 -331.2767 -82.8935)">
						<stop  offset="0" style="stop-color:#A737D5"/>
						<stop  offset="1" style="stop-color:#EF497A"/>
					</linearGradient>
					<path style="fill:url(#SVGID_00000106105074989240249320000002260539185978078631_);" d="M445.291,1113.16
						c2.488-15.052,2.992-30.196-0.339-45.555c-8.392-38.698-40.617-67.192-66.331-95.119c-23.633-25.668-47.732-67.156,3.651-77.82
						c40.936-8.495,99.6,17.665,117.09,57.679c20.699,47.359,14.834,116.401,56.272,152.822
						c57.968,50.95,82.452,28.262,113.22,133.792c13.147,45.092-4.578,77.246-29.192,99.287
						c-38.85,34.788-95.239,41.749-141.367,17.421c-40.751-21.492-72.541-60.2-79.092-106.456
						C412.586,1202.492,437.838,1158.238,445.291,1113.16z"/>
					
						<linearGradient id="SVGID_00000040572128391870800830000015866673294960032701_" gradientUnits="userSpaceOnUse" x1="-489.1158" y1="1438.1041" x2="-405.7617" y2="1438.1041" gradientTransform="matrix(-0.9601 0.28 0.28 0.9601 -331.2767 -82.8935)">
						<stop  offset="0" style="stop-color:#2B3582"/>
						<stop  offset="1" style="stop-color:#150E42"/>
					</linearGradient>
					<path style="fill:url(#SVGID_00000040572128391870800830000015866673294960032701_);" d="M577.373,1442.683
						c-0.76,0-1.391-0.602-1.421-1.368c-4.068-106.4-16.746-200.203-37.681-278.804c-16.733-62.823-38.745-116.118-65.423-158.404
						c-45.288-71.781-88.748-86.979-89.181-87.124c-0.745-0.249-1.147-1.055-0.897-1.8c0.249-0.744,1.057-1.147,1.8-0.898
						c0.443,0.148,44.862,15.675,90.685,88.304c26.833,42.529,48.96,96.088,65.766,159.189
						c20.99,78.804,33.699,172.817,37.775,279.427c0.03,0.785-0.582,1.446-1.367,1.476
						C577.409,1442.683,577.391,1442.683,577.373,1442.683z"/>
				</g>
				
					<linearGradient id="SVGID_00000034064890854754092580000008695157444088210593_" gradientUnits="userSpaceOnUse" x1="-362.3415" y1="1218.7273" x2="-481.085" y2="1631.5024" gradientTransform="matrix(-0.9601 0.28 0.28 0.9601 -331.2767 -82.8935)">
					<stop  offset="0" style="stop-color:#A737D5"/>
					<stop  offset="1" style="stop-color:#EF497A"/>
				</linearGradient>
				<path style="fill:url(#SVGID_00000034064890854754092580000008695157444088210593_);" d="M372.987,1013.534
					c1.782-1.089,3.859-1.872,6.198-2.272c12.936-2.21,21.925,9.491,28.611,18.739c5.726,7.92,12.565,17.565,13.497,27.682
					c1.007,10.938-7.524,22.587-18.565,14.403c-12.55-9.303-31.504-23.679-36.202-39.487
					C364.19,1024.743,366.815,1017.306,372.987,1013.534z"/>
			</g>
			<g>
				
					<linearGradient id="SVGID_00000019635710014940474840000004021339093668475523_" gradientUnits="userSpaceOnUse" x1="1094.7268" y1="854.187" x2="698.989" y2="1521.744" gradientTransform="matrix(0.994 0.1094 -0.1094 0.994 -535.4056 133.8077)">
					<stop  offset="0" style="stop-color:#FDF53F"/>
					<stop  offset="1" style="stop-color:#D93C65"/>
				</linearGradient>
				<path style="fill:url(#SVGID_00000019635710014940474840000004021339093668475523_);" d="M321.851,1316.296
					c-27.889-22.02-13.984-74.53-18.265-111.981c-2.263-19.801-6.223-38.952-14.791-57.068
					c-8.519-18.011-23.351-35.854-20.654-57.059c5.436-42.723,49.667-36.897,80.443-14.901
					c35.714,25.525,58.618,77.573,80.666,116.365c13.292,23.386,29.793,46.536,40.405,71.222
					c17.58,40.894,16.576,73.136,2.084,98.938c-13.899,24.748-50.353,51.458-70.056,31.027
					C386.805,1377.411,364.805,1350.21,321.851,1316.296z"/>
				
					<linearGradient id="SVGID_00000067221396302012353290000013763104803441040305_" gradientUnits="userSpaceOnUse" x1="94.304" y1="1677.4338" x2="158.082" y2="1677.4338" gradientTransform="matrix(-0.8704 0.4922 0.4922 0.8704 -326.6184 -258.2388)">
					<stop  offset="0" style="stop-color:#2B3582"/>
					<stop  offset="1" style="stop-color:#150E42"/>
				</linearGradient>
				<path style="fill:url(#SVGID_00000067221396302012353290000013763104803441040305_);" d="M456.943,1446.758
					c-0.057,0.007-0.112,0.01-0.168,0.01c-0.711,0-1.326-0.533-1.411-1.256c-0.063-0.534-6.516-54.268-26.932-125.104
					c-18.83-65.334-53.728-158.997-113.048-234.178c-0.486-0.616-0.381-1.511,0.236-1.997c0.616-0.487,1.511-0.382,1.998,0.235
					c59.618,75.559,94.662,169.611,113.564,235.206c20.473,71.05,26.945,124.97,27.008,125.507
					C458.281,1445.959,457.723,1446.666,456.943,1446.758z"/>
			</g>
		</g>
		<g>
			<g>
				<g>
					<path d="M1495.356,1174.988l-9.961-219.603c39.828-63.923,53.756,34.053,38.032,219.603H1495.356z"/>
					<path d="M1485.395,1224.001h4.278h287.338c14.468-26.257-9.555-48.83-79.143-63.569l-198.642-2.707L1485.395,1224.001z"/>
				</g>
				<g>
					<g>
						<g>
							<g>
								
									<linearGradient id="SVGID_00000070081153868320187000000006771162265771623312_" gradientUnits="userSpaceOnUse" x1="9852.708" y1="1406.7788" x2="9951.0967" y2="1406.7788" gradientTransform="matrix(1 0 0 1 -8074.2148 0)">
									<stop  offset="0" style="stop-color:#CB236D"/>
									<stop  offset="1" style="stop-color:#4C246D"/>
								</linearGradient>
								<path style="fill:url(#SVGID_00000070081153868320187000000006771162265771623312_);" d="M1818.057,1407.191
									c-24.12,0-34.792-2.069-39.564-3.956c0.927,3.961,4.455,7.088,8.913,7.088h85.33c2.874,0,4.687-2.751,4.001-5.241
									C1867.01,1405.864,1846.351,1407.191,1818.057,1407.191z"/>
								
									<linearGradient id="SVGID_00000013170119982257096310000000568769616315673729_" gradientUnits="userSpaceOnUse" x1="9928.5127" y1="1217.5868" x2="9901.6299" y2="1403.3223" gradientTransform="matrix(1 0 0 1 -8074.2148 0)">
									<stop  offset="0" style="stop-color:#CB236D"/>
									<stop  offset="1" style="stop-color:#4C246D"/>
								</linearGradient>
								<path style="fill:url(#SVGID_00000013170119982257096310000000568769616315673729_);" d="M1876.736,1405.082
									c-0.138-0.502-0.342-0.996-0.699-1.452c-6.5-8.299-19.557-21.332-37.318-21.082c-26.02,0.366-35.092,3.189-55.312,0.159
									l-4.77,15.811c-0.486,1.612-0.495,3.221-0.145,4.717c4.771,1.887,15.443,3.956,39.564,3.956
									C1846.351,1407.191,1867.01,1405.864,1876.736,1405.082z"/>
							</g>
							
								<linearGradient id="SVGID_00000000921717664839650470000007564193564940376750_" gradientUnits="userSpaceOnUse" x1="9857.6221" y1="1377.129" x2="9884.2432" y2="1377.129" gradientTransform="matrix(1 0 0 1 -8074.2148 0)">
								<stop  offset="0" style="stop-color:#F9B776"/>
								<stop  offset="1" style="stop-color:#F47960"/>
							</linearGradient>
							<path style="fill:url(#SVGID_00000000921717664839650470000007564193564940376750_);" d="M1789.263,1365.669l-5.855,19.914
								c0,0,12.972,5.905,24.381,1.165l2.24-17.253L1789.263,1365.669z"/>
							
								<linearGradient id="SVGID_00000014603799177183814400000003428989204685220534_" gradientUnits="userSpaceOnUse" x1="-1862.2383" y1="1030.3909" x2="-1611.2632" y2="1262.8281" gradientTransform="matrix(-1 0 0 1 120.6785 0)">
								<stop  offset="0" style="stop-color:#2B3582"/>
								<stop  offset="1" style="stop-color:#150E42"/>
							</linearGradient>
							<path style="fill:url(#SVGID_00000014603799177183814400000003428989204685220534_);" d="M1664.007,1138.783
								c0,0,144.408,11.791,174.031,25.736c29.624,13.946-24.175,209.399-24.175,209.399s-8.065,3.882-26.01-1.697
								c0,0,18.402-144.237,4.709-175.514l-156.356-25.574L1664.007,1138.783z"/>
						</g>
						<g>
							<g>
								
									<linearGradient id="SVGID_00000093140548899655956370000002311373504938560651_" gradientUnits="userSpaceOnUse" x1="9851.3389" y1="1426.8542" x2="9951.3896" y2="1426.8542" gradientTransform="matrix(1 0 0 1 -8074.2148 0)">
									<stop  offset="0" style="stop-color:#CB236D"/>
									<stop  offset="1" style="stop-color:#4C246D"/>
								</linearGradient>
								<path style="fill:url(#SVGID_00000093140548899655956370000002311373504938560651_);" d="M1817.356,1427.273
									c-24.528,0-35.38-2.104-40.232-4.023c0.943,4.028,4.531,7.208,9.064,7.208h86.771c2.922,0,4.766-2.797,4.068-5.33
									C1867.136,1425.924,1846.128,1427.273,1817.356,1427.273z"/>
								
									<linearGradient id="SVGID_00000159451380282823794550000009744337215380647329_" gradientUnits="userSpaceOnUse" x1="9928.4248" y1="1234.4662" x2="9901.0879" y2="1423.3394" gradientTransform="matrix(1 0 0 1 -8074.2148 0)">
									<stop  offset="0" style="stop-color:#CB236D"/>
									<stop  offset="1" style="stop-color:#4C246D"/>
								</linearGradient>
								<path style="fill:url(#SVGID_00000159451380282823794550000009744337215380647329_);" d="M1877.027,1425.129
									c-0.141-0.51-0.348-1.013-0.711-1.477c-6.61-8.439-19.887-21.692-37.949-21.438c-26.459,0.372-35.685,3.243-56.246,0.161
									l-4.85,16.078c-0.494,1.639-0.503,3.276-0.147,4.796c4.852,1.919,15.704,4.023,40.232,4.023
									C1846.128,1427.273,1867.136,1425.924,1877.027,1425.129z"/>
							</g>
							
								<linearGradient id="SVGID_00000148629721003632934800000014853829398512201116_" gradientUnits="userSpaceOnUse" x1="9856.3369" y1="1396.7035" x2="9883.4072" y2="1396.7035" gradientTransform="matrix(1 0 0 1 -8074.2148 0)">
								<stop  offset="0" style="stop-color:#F9B776"/>
								<stop  offset="1" style="stop-color:#F47960"/>
							</linearGradient>
							<path style="fill:url(#SVGID_00000148629721003632934800000014853829398512201116_);" d="M1788.076,1385.05l-5.954,20.25
								c0,0,13.191,6.005,24.793,1.184l2.278-17.545L1788.076,1385.05z"/>
							
								<linearGradient id="SVGID_00000032613841840251690400000007756024853817744567_" gradientUnits="userSpaceOnUse" x1="-1787.7782" y1="1105.8636" x2="-1511.136" y2="1376.802" gradientTransform="matrix(-1 0 0 1 120.6785 0)">
								<stop  offset="0" style="stop-color:#2B3582"/>
								<stop  offset="1" style="stop-color:#150E42"/>
							</linearGradient>
							<path style="fill:url(#SVGID_00000032613841840251690400000007756024853817744567_);" d="M1660.704,1154.33
								c0,0,146.847,11.99,176.972,26.171c30.125,14.181-24.583,212.937-24.583,212.937s-8.201,3.947-26.45-1.726
								c0,0,4.292-135.775-9.633-167.58l-144.577-36.906L1660.704,1154.33z"/>
						</g>
					</g>
					<g>
						<g>
							<g>
								
									<linearGradient id="SVGID_00000079459176984046525110000010350623050970747279_" gradientUnits="userSpaceOnUse" x1="9158.0078" y1="93.636" x2="9237.2129" y2="93.636" gradientTransform="matrix(0.7979 -0.6028 0.6028 0.7979 -5830.4961 6358.5503)">
									<stop  offset="0" style="stop-color:#F9B776"/>
									<stop  offset="1" style="stop-color:#F47960"/>
								</linearGradient>
								<path style="fill:url(#SVGID_00000079459176984046525110000010350623050970747279_);" d="M1564.545,845.802
									c0,0-18.135,53.668-23.572,77.405l43.713-6.072c0,0,2.117-31.748,11.906-51.705L1564.545,845.802z"/>
								<g>
									
										<linearGradient id="SVGID_00000106864399654794188290000004518734505206117537_" gradientUnits="userSpaceOnUse" x1="14873.6084" y1="10856.4414" x2="14777.0732" y2="10984.1494" gradientTransform="matrix(0.8038 -0.5948 0.5948 0.8038 -16834.4121 908.055)">
										<stop  offset="0" style="stop-color:#F9B776"/>
										<stop  offset="1" style="stop-color:#F47960"/>
									</linearGradient>
									<path style="fill:url(#SVGID_00000106864399654794188290000004518734505206117537_);" d="M1600.793,787.634
										c3.377,6.625,5.394,14.742,8.01,23.302c4.909,16.063,9.771,32.142,14.613,48.226l-40.777,11.336
										c-7.655-16.264-14.984-32.679-22.684-48.922c-4.1-8.648-7.927-20.597-17.571-24.589c-5.623-2.327-11.84,0.355-9.101-7.343
										c2.01-5.648,9.644-10.727,14.694-13.266c8.2-4.125,17.623-5.408,26.784-4.837
										C1589.164,772.439,1596.224,778.67,1600.793,787.634z"/>
									<path style="fill:#FFFFFF;" d="M1539.532,770.125c5.356-4.442,11.621-7.205,18.54-7.052
										c3.992,0.088,7.922,1.299,11.91,1.112c5.951-0.279,11.464-3.64,17.421-3.724c6.171-0.087,12.06,3.541,15.512,8.656
										c3.452,5.116,4.644,11.528,4.184,17.682c-0.095,1.272-0.28,2.601-1.032,3.631c-1.505,2.061-4.493,2.085-7.042,2.207
										c-12.291,0.588-16.869,7.166-24.978,14.694c-3.358,3.118-4.676,5.752-4.823,8.459c-0.181,3.337,1.415,6.786,3.159,11.395
										c2.983,7.882,5.955,15.769,8.948,23.647c0.171,0.449,0.394,0.864,0.679,1.251c1.748,2.368,8.357,10.075,15.829,2.833
										c6.781-6.573,13.067-12.469,18.968-13.646c2.649-0.529,5.262,1.037,6.04,3.624c1.939,6.448,6.041,21.059,7.668,34.296
										c0.33,2.687-1.474,5.161-4.121,5.725c-7.976,1.701-24.898,4.817-39.098,4.134c-1.924-0.093-3.641-1.207-4.481-2.941
										c-3.758-7.751-3.447-20.281-14.484-20.781c-4.233-0.192-8.328,1.424-12.161,3.23c-0.812,0.383-1.627,0.778-2.499,0.991
										c-1.936,0.473-4.087-0.036-5.604-1.328c-3.357-2.858-2.692-8.599-5.981-11.909c-1.569-1.58-3.629-2.558-5.644-3.506
										c-7.206-3.389-16.806-7.986-18.088-16.839c-0.717-4.951,1.079-10.475,1.411-15.465c0.26-3.91,0.175-7.836,0.445-11.744
										C1521.088,796.096,1528.315,779.429,1539.532,770.125z"/>
									
										<linearGradient id="SVGID_00000044150902800097866410000008622231174982925484_" gradientUnits="userSpaceOnUse" x1="14752.8809" y1="10959.042" x2="14820.1279" y2="10890.0488" gradientTransform="matrix(0.8038 -0.5948 0.5948 0.8038 -16834.4121 908.055)">
										<stop  offset="0" style="stop-color:#F9B776"/>
										<stop  offset="1" style="stop-color:#F47960"/>
									</linearGradient>
									<path style="fill:url(#SVGID_00000044150902800097866410000008622231174982925484_);" d="M1568.782,857.032
										c0,0-5.654-21.249-15.005-22.139c-9.352-0.889-18.258,6.979-8.704,19.356
										C1556.958,869.643,1568.782,857.032,1568.782,857.032z"/>
								</g>
							</g>
						</g>
						<g>
							
								<linearGradient id="SVGID_00000104705227747072709230000002351587447591944332_" gradientUnits="userSpaceOnUse" x1="8132.4189" y1="257.0126" x2="8201.4482" y2="257.0126" gradientTransform="matrix(0.9492 -0.3146 0.3146 0.9492 -6018.5674 3317.6919)">
								<stop  offset="0" style="stop-color:#F9B776"/>
								<stop  offset="1" style="stop-color:#F47960"/>
							</linearGradient>
							<path style="fill:url(#SVGID_00000104705227747072709230000002351587447591944332_);" d="M1781.811,1003.883l8.236-5.401
								l25.323-15.44c3.049-1.859,6.713-2.424,10.18-1.57l22.517,5.548c1.727,0.425,1.82,2.846,0.131,3.403l-59.311,19.544
								L1781.811,1003.883z"/>
							
								<linearGradient id="SVGID_00000070106718937543409080000010690407096685094304_" gradientUnits="userSpaceOnUse" x1="-851.8441" y1="68.1229" x2="-642.0264" y2="288.5371" gradientTransform="matrix(-0.8463 0.5326 0.5326 0.8463 931.0406 1227.9946)">
								<stop  offset="0" style="stop-color:#53D8FF"/>
								<stop  offset="1" style="stop-color:#3840F7"/>
							</linearGradient>
							<path style="fill:url(#SVGID_00000070106718937543409080000010690407096685094304_);" d="M1537.144,1174.353
								c0,0,47.649-3.361,78.897-36.297c0,0,0.975-109.176,9.134-140.92c0,0,89.994,49.897,166.075,12.053l-5.243-8.056
								c0,0-84.832-16.796-127.763-46.109c-42.931-29.313-60.805-42.09-83.385-42.576c-14.063-0.303-22.831-1.037-27.445-1.548
								c-2.526-0.28-4.944,1.031-6.077,3.306C1530.897,935.179,1485.885,1037.211,1537.144,1174.353z"/>
						</g>
					</g>
				</g>
				<g>
					
						<linearGradient id="SVGID_00000028286117298196765530000008917679233374526645_" gradientUnits="userSpaceOnUse" x1="-1953.3798" y1="683.5352" x2="-1161.1497" y2="1458.9597" gradientTransform="matrix(-1 0 0 1 120.6785 0)">
						<stop  offset="0" style="stop-color:#2B3582"/>
						<stop  offset="1" style="stop-color:#150E42"/>
					</linearGradient>
					<path style="fill:url(#SVGID_00000028286117298196765530000008917679233374526645_);" d="M1490.588,1152.94l229.146,1.39
						v-0.678c0-11.188-8.876-20.359-20.058-20.725l-199.347-6.52c-8.033-0.263-14.144,7.141-12.365,14.979L1490.588,1152.94z"/>
					
						<linearGradient id="SVGID_00000003790004142785380840000010979872449075352223_" gradientUnits="userSpaceOnUse" x1="-1281.1355" y1="865.9713" x2="-1406.856" y2="1171.7004" gradientTransform="matrix(-1 0 0 1 120.6785 0)">
						<stop  offset="0" style="stop-color:#2B3582"/>
						<stop  offset="1" style="stop-color:#150E42"/>
					</linearGradient>
					<path style="fill:url(#SVGID_00000003790004142785380840000010979872449075352223_);" d="M1399.675,915.168
						c80.612-23.291,104.706,8.482,97.704,101.483v177.591h-20.13V984.135c-1.75-45.768-16.849-59.168-70.094-42.348
						C1390,943.926,1381.115,920.872,1399.675,915.168z"/>
					
						<linearGradient id="SVGID_00000078033199904353375420000010144714533613348283_" gradientUnits="userSpaceOnUse" x1="-1694.3993" y1="1438.7491" x2="-1598.3629" y2="1438.7491" gradientTransform="matrix(-1 0 0 1 120.6785 0)">
						<stop  offset="0" style="stop-color:#2B3582"/>
						<stop  offset="1" style="stop-color:#150E42"/>
					</linearGradient>
					<path style="fill:url(#SVGID_00000078033199904353375420000010144714533613348283_);" d="M1726.934,1447.04h80.251
						c4.341,0,7.893-3.552,7.893-7.893v-0.796c0-4.341-3.552-7.893-7.893-7.893h-80.251c-4.341,0-7.893,3.552-7.893,7.893v0.796
						C1719.041,1443.488,1722.593,1447.04,1726.934,1447.04z"/>
					
						<linearGradient id="SVGID_00000089540289923433753170000016858779332160124833_" gradientUnits="userSpaceOnUse" x1="-1643.9513" y1="1507.3378" x2="-1539.9911" y2="1255.8667" gradientTransform="matrix(-1 0 0 1 120.6785 0)">
						<stop  offset="0" style="stop-color:#2C759E"/>
						<stop  offset="1" style="stop-color:#051042"/>
					</linearGradient>
					<path style="fill:url(#SVGID_00000089540289923433753170000016858779332160124833_);" d="M1503.109,1150.352l275.998,60.514
						c20.349,4.462,34.966,22.32,35.318,43.149l2.931,173.323h-20.382l-13.567-167.554l-291.407-29.946L1503.109,1150.352z"/>
					<g>
						
							<linearGradient id="SVGID_00000098196245931126965200000009053191809732181429_" gradientUnits="userSpaceOnUse" x1="-1638.8944" y1="1381.3473" x2="-1729.2853" y2="1546.7565" gradientTransform="matrix(-1 0 0 1 120.6785 0)">
							<stop  offset="0" style="stop-color:#2B3582"/>
							<stop  offset="1" style="stop-color:#150E42"/>
						</linearGradient>
						
							<circle style="fill:url(#SVGID_00000098196245931126965200000009053191809732181429_);" cx="1808.101" cy="1470.151" r="46.901"/>
						
							<linearGradient id="SVGID_00000082339039183618121870000007322240021694845059_" gradientUnits="userSpaceOnUse" x1="-1650.1934" y1="1402.0234" x2="-1719.5385" y2="1528.9203" gradientTransform="matrix(-1 0 0 1 120.6785 0)">
							<stop  offset="0" style="stop-color:#2C759E"/>
							<stop  offset="1" style="stop-color:#051042"/>
						</linearGradient>
						
							<circle style="fill:url(#SVGID_00000082339039183618121870000007322240021694845059_);" cx="1808.101" cy="1470.151" r="35.981"/>
					</g>
					<g>
						
							<linearGradient id="SVGID_00000134213792287689926280000018140184191588370604_" gradientUnits="userSpaceOnUse" x1="-1662.0695" y1="1316.3529" x2="-1281.139" y2="1316.3529" gradientTransform="matrix(-1 0 0 1 120.6785 0)">
							<stop  offset="0" style="stop-color:#2B3582"/>
							<stop  offset="1" style="stop-color:#150E42"/>
						</linearGradient>
						
							<circle style="fill:url(#SVGID_00000134213792287689926280000018140184191588370604_);" cx="1592.283" cy="1316.353" r="190.465"/>
						
							<linearGradient id="SVGID_00000054962156716727437830000008565145666140794755_" gradientUnits="userSpaceOnUse" x1="-1383.9359" y1="1165.1237" x2="-1698.3982" y2="1740.5685" gradientTransform="matrix(-1 0 0 1 120.6785 0)">
							<stop  offset="0" style="stop-color:#2B3582"/>
							<stop  offset="1" style="stop-color:#150E42"/>
						</linearGradient>
						
							<circle style="fill:url(#SVGID_00000054962156716727437830000008565145666140794755_);" cx="1589.032" cy="1319.603" r="163.163"/>
					</g>
				</g>
			</g>
		</g>
		<g>
			
				<linearGradient id="SVGID_00000013162649869202816540000011231046518523809414_" gradientUnits="userSpaceOnUse" x1="625.7425" y1="1275.5417" x2="762.8698" y2="1275.5417">
				<stop  offset="0" style="stop-color:#2B3582"/>
				<stop  offset="1" style="stop-color:#150E42"/>
			</linearGradient>
			<path style="fill:url(#SVGID_00000013162649869202816540000011231046518523809414_);" d="M625.908,1090.25
				c-2.082,0.417,15.926,306.837,29.728,375.849l28.666-2.123l6.37-310.022h10.617l15.926,304.714h23.358l22.296-371.602
				C762.87,1087.065,673.685,1080.695,625.908,1090.25z"/>
			
				<linearGradient id="SVGID_00000106117583734583125230000014312175930603877810_" gradientUnits="userSpaceOnUse" x1="673.6844" y1="1496.9196" x2="678.0309" y2="1382.4603">
				<stop  offset="0" style="stop-color:#CB236D"/>
				<stop  offset="1" style="stop-color:#4C246D"/>
			</linearGradient>
			<path style="fill:url(#SVGID_00000106117583734583125230000014312175930603877810_);" d="M655.636,1486.271
				c0,0,23.358,3.185,37.16,0c0,0,4.247-11.679-8.494-22.296c-12.741-10.617-28.666,2.123-28.666,2.123V1486.271z"/>
			
				<linearGradient id="SVGID_00000017490789941362618800000007196928232832105629_" gradientUnits="userSpaceOnUse" x1="752.6795" y1="1499.9194" x2="757.026" y2="1385.4598">
				<stop  offset="0" style="stop-color:#CB236D"/>
				<stop  offset="1" style="stop-color:#4C246D"/>
			</linearGradient>
			<path style="fill:url(#SVGID_00000017490789941362618800000007196928232832105629_);" d="M717.216,1458.667
				c0,0-1.062,16.987,0,25.481c0,0,44.593,1.487,69.109,1.35c4.503-0.025,5.766-6.159,1.648-7.98
				c-7.885-3.486-22.029-15.093-47.399-18.851H717.216z"/>
			
				<linearGradient id="SVGID_00000179613940514375714860000004436410483199409559_" gradientUnits="userSpaceOnUse" x1="715.4467" y1="791.4312" x2="686.3435" y2="1204.4773">
				<stop  offset="0" style="stop-color:#CB236D"/>
				<stop  offset="1" style="stop-color:#4C246D"/>
			</linearGradient>
			<path style="fill:url(#SVGID_00000179613940514375714860000004436410483199409559_);" d="M635.464,842.869
				c0,0,61.58-20.173,110.419-2.123l24.42,255.875c0,0-109.357-3.186-146.518,5.308L635.464,842.869z"/>
			
				<linearGradient id="SVGID_00000030465647115925820970000009634406462670336664_" gradientUnits="userSpaceOnUse" x1="617.8234" y1="781.1209" x2="612.0282" y2="1057.8529">
				<stop  offset="0" style="stop-color:#FDF53F"/>
				<stop  offset="1" style="stop-color:#D93C65"/>
			</linearGradient>
			<path style="fill:url(#SVGID_00000030465647115925820970000009634406462670336664_);" d="M581.316,864.104
				c0,0,36.099-20.172,70.074-25.481l-10.185,259.717c-0.254,6.466-4.903,11.916-11.248,13.185l-3.618,0.724
				c-3.479,0.696-6.702-2.025-6.6-5.572l3.178-109.63c0.573-19.748-3.025-39.395-10.556-57.66L581.316,864.104z"/>
			
				<linearGradient id="SVGID_00000093170596899638016740000009413956057162118333_" gradientUnits="userSpaceOnUse" x1="772.2582" y1="784.355" x2="766.463" y2="1061.0862">
				<stop  offset="0" style="stop-color:#FDF53F"/>
				<stop  offset="1" style="stop-color:#D93C65"/>
			</linearGradient>
			<path style="fill:url(#SVGID_00000093170596899638016740000009413956057162118333_);" d="M728.895,836.499
				c0,0,53.086,4.247,83.876,31.851l-23.932,67.572c-8.052,22.735-12.167,46.677-12.167,70.797l-5.038,97.407
				c-0.152,2.934-2.575,5.235-5.512,5.235c-7.251,0-13.303-5.535-13.95-12.757L728.895,836.499z"/>
			
				<linearGradient id="SVGID_00000121253613992012756560000008515437442278435750_" gradientUnits="userSpaceOnUse" x1="685.8533" y1="881.8176" x2="693.0276" y2="820.4372">
				<stop  offset="0" style="stop-color:#F9B776"/>
				<stop  offset="0.0496" style="stop-color:#F9B475"/>
				<stop  offset="1" style="stop-color:#F47960"/>
			</linearGradient>
			<path style="fill:url(#SVGID_00000121253613992012756560000008515437442278435750_);" d="M669.439,804.647l-0.917,30.247
				c-0.091,2.991,1.764,5.686,4.587,6.682c7.734,2.728,23.744,6.875,38.917,1.443c3.061-1.096,4.903-4.229,4.43-7.446l-4.548-30.926
				H669.439z"/>
			
				<linearGradient id="SVGID_00000067201962159492531190000005002002176574853508_" gradientUnits="userSpaceOnUse" x1="695.2677" y1="813.1126" x2="692.5235" y2="734.0305">
				<stop  offset="0" style="stop-color:#F9B776"/>
				<stop  offset="0.0496" style="stop-color:#F9B475"/>
				<stop  offset="1" style="stop-color:#F47960"/>
			</linearGradient>
			<path style="fill:url(#SVGID_00000067201962159492531190000005002002176574853508_);" d="M656.698,749.438
				c0,0,5.309,54.148,16.988,67.95c0,0,35.037,3.186,47.777-4.247c0,0,9.025-27.074,7.963-63.172c0,0,1.74-32.849-34.506-35.568
				C652.451,711.216,656.698,749.438,656.698,749.438z"/>
			
				<linearGradient id="SVGID_00000174578549954166562070000015840248914104100248_" gradientUnits="userSpaceOnUse" x1="732.3327" y1="811.827" x2="729.5885" y2="732.7441">
				<stop  offset="0" style="stop-color:#F9B776"/>
				<stop  offset="0.0496" style="stop-color:#F9B475"/>
				<stop  offset="1" style="stop-color:#F47960"/>
			</linearGradient>
			<path style="fill:url(#SVGID_00000174578549954166562070000015840248914104100248_);" d="M725.71,766.425
				c0,0,3.185-9.556,8.494-9.556c5.309,0-1.062,25.482-8.494,25.482V766.425z"/>
			
				<linearGradient id="SVGID_00000083798823163829776980000003345167529498375830_" gradientUnits="userSpaceOnUse" x1="658.3997" y1="814.3921" x2="655.6555" y2="735.3102">
				<stop  offset="0" style="stop-color:#F9B776"/>
				<stop  offset="0.0496" style="stop-color:#F9B475"/>
				<stop  offset="1" style="stop-color:#F47960"/>
			</linearGradient>
			<path style="fill:url(#SVGID_00000083798823163829776980000003345167529498375830_);" d="M661.529,768.935
				c0,0-4.444-9.039-9.705-8.323c-5.26,0.716,4.488,25.105,11.852,24.103L661.529,768.935z"/>
			
				<linearGradient id="SVGID_00000182514021439770464590000004449007149828454296_" gradientUnits="userSpaceOnUse" x1="697.4139" y1="734.117" x2="692.1283" y2="826.6154">
				<stop  offset="0" style="stop-color:#CCCCCC"/>
				<stop  offset="0.9974" style="stop-color:#FFFFFF"/>
			</linearGradient>
			<path style="fill:url(#SVGID_00000182514021439770464590000004449007149828454296_);" d="M660.363,778.006
				c0,0,1.19,32.344,15.416,48.748c1.306,1.506,3.194,2.381,5.184,2.477c7.261,0.349,25.823,0.974,36.29-1.112
				c2.605-0.519,4.75-2.356,5.607-4.87c2.573-7.544,7.04-19.44,5.504-46.737l-8.538,20.346c-6.325,16.814-9.759-3.596-12.696-3.359
				h-19.111c-2.014,0.163-4.247,12.74-11.71,9.055L660.363,778.006z"/>
			
				<linearGradient id="SVGID_00000014602943875699037210000001569884786133541037_" gradientUnits="userSpaceOnUse" x1="727.345" y1="792.2137" x2="675.8102" y2="714.2509">
				<stop  offset="0" style="stop-color:#CCCCCC"/>
				<stop  offset="0.9974" style="stop-color:#FFFFFF"/>
			</linearGradient>
			<path style="fill:url(#SVGID_00000014602943875699037210000001569884786133541037_);" d="M715.093,736.698
				c0,0-27.05,27.821-56.525,27.713c0,0-16.734-44.7,16.18-52.133c32.913-7.432,33.975,2.123,33.975,2.123
				s38.487-9.452,21.367,45.175L715.093,736.698z"/>
			
				<linearGradient id="SVGID_00000104707426077721495380000016284129101707259559_" gradientUnits="userSpaceOnUse" x1="699.8744" y1="1120.228" x2="711.3358" y2="1480.629">
				<stop  offset="0" style="stop-color:#2C759E"/>
				<stop  offset="1" style="stop-color:#051042"/>
			</linearGradient>
			<path style="fill:url(#SVGID_00000104707426077721495380000016284129101707259559_);" d="M704.475,1493.703
				c-1.759,0-3.185-1.425-3.185-3.185v-451.231c0-1.76,1.426-3.185,3.185-3.185c1.759,0,3.185,1.425,3.185,3.185v451.231
				C707.661,1492.278,706.234,1493.703,704.475,1493.703z"/>
			
				<linearGradient id="SVGID_00000170277581263268637950000011501954696665210792_" gradientUnits="userSpaceOnUse" x1="795.2866" y1="738.7098" x2="775.0024" y2="1160.3258">
				<stop  offset="0" style="stop-color:#FDF53F"/>
				<stop  offset="1" style="stop-color:#D93C65"/>
			</linearGradient>
			<path style="fill:url(#SVGID_00000170277581263268637950000011501954696665210792_);" d="M718.278,1032.917
				c0,0,60.518,33.975,75.382-9.556c14.864-43.53-12.741-71.135-12.741-71.135l31.852-83.876c0,0,60.518,111.481,18.049,179.431
				c-39.79,63.663-110.419,5.309-110.419,5.309L718.278,1032.917z"/>
			
				<linearGradient id="SVGID_00000098925521644592338340000016178206956436406431_" gradientUnits="userSpaceOnUse" x1="635.3097" y1="731.0135" x2="615.0255" y2="1152.6301">
				<stop  offset="0" style="stop-color:#FDF53F"/>
				<stop  offset="1" style="stop-color:#D93C65"/>
			</linearGradient>
			<path style="fill:url(#SVGID_00000098925521644592338340000016178206956436406431_);" d="M581.316,864.104
				c0,0-57.333,191.11,0,216.591c57.333,25.481,105.11-36.099,105.11-36.099l-6.37-18.049c0,0-52.024,29.728-69.012,14.864
				c-16.988-14.864,11.679-101.925,11.679-101.925L581.316,864.104z"/>
			
				<linearGradient id="SVGID_00000043415340463913182700000017698404410950001850_" gradientUnits="userSpaceOnUse" x1="694.2939" y1="1040.843" x2="720.4012" y2="1040.843">
				<stop  offset="0" style="stop-color:#F9B776"/>
				<stop  offset="0.0496" style="stop-color:#F9B475"/>
				<stop  offset="1" style="stop-color:#F47960"/>
			</linearGradient>
			<path style="fill:url(#SVGID_00000043415340463913182700000017698404410950001850_);" d="M720.401,1053.09
				c0,0-11.679,1.062-18.05-5.309c-6.37-6.37-12.741-18.049-3.185-19.111c9.555-1.062,19.111,4.247,19.111,4.247L720.401,1053.09z"
				/>
			
				<linearGradient id="SVGID_00000049922286485472118640000017291843377959338118_" gradientUnits="userSpaceOnUse" x1="719.3118" y1="1027.8427" x2="666.3974" y2="1054.2999">
				<stop  offset="0" style="stop-color:#F9B776"/>
				<stop  offset="0.0496" style="stop-color:#F9B475"/>
				<stop  offset="1" style="stop-color:#F47960"/>
			</linearGradient>
			<path style="fill:url(#SVGID_00000049922286485472118640000017291843377959338118_);" d="M724.648,1032.917
				c0,0-27.605-16.987-44.592-6.37c0,0-3.185,12.74,6.37,18.049c0,0,16.987,11.679,30.79,5.309
				C731.018,1043.535,724.648,1032.917,724.648,1032.917z"/>
		</g>
	</g>
</g>
</svg>
